<mxfile host="app.diagrams.net" modified="2020-03-21T08:30:13.267Z" agent="Mozilla/5.0 (Windows NT 10.0; Win64; x64) AppleWebKit/537.36 (KHTML, like Gecko) Chrome/80.0.3987.132 Safari/537.36" etag="1uY7rHo8sSZQ2G7cOSBx" version="12.8.8" type="github">
  <diagram id="KMttI4ozfZRILU2N1Eme" name="Page-1">
    <mxGraphModel dx="2062" dy="1105" grid="1" gridSize="10" guides="1" tooltips="1" connect="1" arrows="1" fold="1" page="1" pageScale="1" pageWidth="827" pageHeight="1169" math="0" shadow="0">
      <root>
        <mxCell id="0" />
        <mxCell id="1" parent="0" />
        <mxCell id="Pb2JIofYfa4d31RS2PV--1" value="Class Point" style="swimlane;fontStyle=0;childLayout=stackLayout;horizontal=1;startSize=26;fillColor=#fff2cc;horizontalStack=0;resizeParent=1;resizeParentMax=0;resizeLast=0;collapsible=1;marginBottom=0;strokeColor=#d6b656;fontSize=16;" vertex="1" parent="1">
          <mxGeometry x="100" y="260" width="180" height="78" as="geometry" />
        </mxCell>
        <mxCell id="Pb2JIofYfa4d31RS2PV--2" value="float x" style="text;strokeColor=#6c8ebf;fillColor=#dae8fc;align=left;verticalAlign=top;spacingLeft=4;spacingRight=4;overflow=hidden;rotatable=0;points=[[0,0.5],[1,0.5]];portConstraint=eastwest;fontSize=16;" vertex="1" parent="Pb2JIofYfa4d31RS2PV--1">
          <mxGeometry y="26" width="180" height="26" as="geometry" />
        </mxCell>
        <mxCell id="Pb2JIofYfa4d31RS2PV--3" value="float y" style="text;strokeColor=#6c8ebf;fillColor=#dae8fc;align=left;verticalAlign=top;spacingLeft=4;spacingRight=4;overflow=hidden;rotatable=0;points=[[0,0.5],[1,0.5]];portConstraint=eastwest;fontSize=16;" vertex="1" parent="Pb2JIofYfa4d31RS2PV--1">
          <mxGeometry y="52" width="180" height="26" as="geometry" />
        </mxCell>
        <mxCell id="Pb2JIofYfa4d31RS2PV--5" value="Global Function" style="swimlane;fillColor=#f5f5f5;strokeColor=#666666;fontColor=#333333;fontSize=16;" vertex="1" parent="1">
          <mxGeometry x="480" y="219" width="200" height="151" as="geometry" />
        </mxCell>
        <mxCell id="Pb2JIofYfa4d31RS2PV--14" value="getX()" style="rounded=0;whiteSpace=wrap;html=1;fontSize=16;fillColor=#d5e8d4;strokeColor=#82b366;" vertex="1" parent="Pb2JIofYfa4d31RS2PV--5">
          <mxGeometry x="40" y="38" width="120" height="29" as="geometry" />
        </mxCell>
        <mxCell id="Pb2JIofYfa4d31RS2PV--15" value="getY()" style="rounded=0;whiteSpace=wrap;html=1;fontSize=16;fillColor=#d5e8d4;strokeColor=#82b366;" vertex="1" parent="Pb2JIofYfa4d31RS2PV--5">
          <mxGeometry x="39" y="90" width="120" height="29" as="geometry" />
        </mxCell>
        <mxCell id="Pb2JIofYfa4d31RS2PV--16" style="edgeStyle=orthogonalEdgeStyle;rounded=0;orthogonalLoop=1;jettySize=auto;html=1;fontSize=16;" edge="1" parent="1" source="Pb2JIofYfa4d31RS2PV--2">
          <mxGeometry relative="1" as="geometry">
            <mxPoint x="480" y="299" as="targetPoint" />
          </mxGeometry>
        </mxCell>
      </root>
    </mxGraphModel>
  </diagram>
</mxfile>
